<?xml version="1.0" standalone="no"?><!DOCTYPE svg PUBLIC "-//W3C//DTD SVG 1.1//EN" "http://www.w3.org/Graphics/SVG/1.1/DTD/svg11.dtd"><svg t="1587904902844" class="icon" viewBox="0 0 1024 1024" version="1.1" xmlns="http://www.w3.org/2000/svg" p-id="12413" xmlns:xlink="http://www.w3.org/1999/xlink" width="200" height="200"><defs><style type="text/css"></style></defs><path d="M614.4 503.466667c14.933333 0 27.733333 12.8 27.733333 27.733333 0 14.933333-12.8 27.733333-27.733333 27.733333h-57.6v34.133334c0 19.2-14.933333 34.133333-36.266667 34.133333-19.2 0-36.266667-14.933333-36.266666-34.133333v-34.133334h-55.466667c-14.933333 0-27.733333-12.8-27.733333-27.733333 0-14.933333 12.8-27.733333 27.733333-27.733333h55.466667v-27.733334h-55.466667c-14.933333 0-27.733333-12.8-27.733333-27.733333 0-14.933333 12.8-27.733333 27.733333-27.733333h51.2c0-2.133333 2.133333-4.266667 2.133333-4.266667l-64-61.866667c-8.533333-8.533333-6.4-23.466667 6.4-34.133333 10.666667-10.666667 25.6-12.8 34.133334-6.4l61.866666 61.866667 57.6-61.866667c8.533333-10.666667 27.733333-6.4 38.4 4.266667s17.066667 21.333333 6.4 34.133333l-66.133333 68.266667v2.133333h57.6c14.933333 0 27.733333 12.8 27.733333 27.733333s-12.8 27.733333-27.733333 27.733334h-57.6v27.733333h57.6z" p-id="12414"></path><path d="M283.733333 910.933333c-14.933333 0-32-4.266667-44.8-12.8-21.333333-12.8-34.133333-34.133333-34.133333-57.6V189.866667c0-40.533333 38.4-72.533333 85.333333-72.533334h469.333334c46.933333 0 85.333333 32 85.333333 72.533334v652.8c0 23.466667-12.8 44.8-34.133333 57.6-27.733333 14.933333-61.866667 17.066667-89.6 0l-183.466667-102.4c-8.533333-4.266667-21.333333-4.266667-29.866667 0l-183.466666 102.4c-10.666667 8.533333-25.6 10.666667-40.533334 10.666666z m241.066667-179.2c14.933333 0 32 4.266667 44.8 10.666667l183.466667 102.4c6.4 2.133333 12.8 4.266667 19.2 2.133333l8.533333-4.266666V189.866667c0-2.133333-6.4-8.533333-21.333333-8.533334h-469.333334c-14.933333 0-21.333333 6.4-21.333333 8.533334v652.8s2.133333 2.133333 8.533333 4.266666c6.4 2.133333 14.933333 2.133333 19.2-2.133333l183.466667-102.4c12.8-6.4 27.733333-10.666667 44.8-10.666667z" p-id="12415"></path></svg>