<?xml version="1.0" standalone="no"?><!DOCTYPE svg PUBLIC "-//W3C//DTD SVG 1.1//EN" "http://www.w3.org/Graphics/SVG/1.1/DTD/svg11.dtd"><svg t="1596762492309" class="icon" viewBox="0 0 1024 1024" version="1.1" xmlns="http://www.w3.org/2000/svg" p-id="2182" xmlns:xlink="http://www.w3.org/1999/xlink" width="200" height="200"><defs><style type="text/css"></style></defs><path d="M243.506461 485.633534 243.506461 485.633534c-14.854001 14.540876-14.854001 38.152148 0 52.734978l483.281003 474.699737c14.852978 14.547016 38.917565 14.547016 53.708122 0 14.852978-14.539853 14.852978-38.181823 0-52.727815L324.063528 511.996419 780.494562 63.666729c14.852978-14.547016 14.852978-38.187963 0-52.734978-14.795674-14.575668-38.861284-14.575668-53.708122 0L243.506461 485.633534 243.506461 485.633534zM243.506461 485.633534" p-id="2183"></path><path d="M243.506461 485.633534 243.506461 485.633534c-14.854001 14.540876-14.854001 38.152148 0 52.734978l483.281003 474.699737c14.852978 14.547016 38.917565 14.547016 53.708122 0 14.852978-14.539853 14.852978-38.181823 0-52.727815L324.063528 511.996419 780.494562 63.666729c14.852978-14.547016 14.852978-38.187963 0-52.734978-14.795674-14.575668-38.861284-14.575668-53.708122 0L243.506461 485.633534 243.506461 485.633534zM243.506461 485.633534" p-id="2184"></path></svg>