<?xml version="1.0" standalone="no"?><!DOCTYPE svg PUBLIC "-//W3C//DTD SVG 1.1//EN" "http://www.w3.org/Graphics/SVG/1.1/DTD/svg11.dtd"><svg t="1587971836591" class="icon" viewBox="0 0 1024 1024" version="1.1" xmlns="http://www.w3.org/2000/svg" p-id="8812" xmlns:xlink="http://www.w3.org/1999/xlink" width="200" height="200"><defs><style type="text/css"></style></defs><path d="M850.8 1016.5H174.2c-27.8 0-53.9-10.8-73.5-30.5-19.6-19.6-30.5-45.8-30.5-73.5 0-5.5 0.4-11 1.3-16.4l97.3-611.4c1.9-11.7 11.9-20.2 23.7-20.2h640c11.8 0 21.8 8.6 23.7 20.2l97.3 611.5c4.4 27.4-2.2 54.9-18.5 77.4-16.3 22.5-40.4 37.3-67.8 41.6-5.5 0.9-11 1.3-16.4 1.3zM213 312.5l-94.1 591.2c-0.5 2.9-0.7 5.9-0.7 8.8 0 15 5.8 29 16.4 39.6 10.6 10.6 24.6 16.4 39.6 16.4h676.5c2.9 0 5.9-0.2 8.8-0.7 14.8-2.4 27.7-10.3 36.5-22.4 8.8-12.1 12.3-26.9 10-41.7l-94-591.2H213z" fill="#1037AC" p-id="8813"></path><path d="M672.5 472.5c-13.3 0-24-10.7-24-24v-256c0-75-61-136-136-136s-136 61-136 136v256c0 13.3-10.7 24-24 24s-24-10.7-24-24v-256c0-101.5 82.5-184 184-184s184 82.5 184 184v256c0 13.3-10.8 24-24 24z" fill="#7A7EF5" p-id="8814"></path></svg>