<?xml version="1.0" standalone="no"?><!DOCTYPE svg PUBLIC "-//W3C//DTD SVG 1.1//EN" "http://www.w3.org/Graphics/SVG/1.1/DTD/svg11.dtd"><svg t="1587905341724" class="icon" viewBox="0 0 1024 1024" version="1.1" xmlns="http://www.w3.org/2000/svg" p-id="30821" id="mx_n_1587905341725" xmlns:xlink="http://www.w3.org/1999/xlink" width="200" height="200"><defs><style type="text/css"></style></defs><path d="M511.6 960.1c-246.9 0-447.8-200.9-447.8-447.8S264.7 64.4 511.6 64.4s447.8 200.9 447.8 447.8-200.9 447.9-447.8 447.9z m0-837.6c-214.9 0-389.7 174.8-389.7 389.7s174.8 389.7 389.7 389.7 389.7-174.8 389.7-389.7-174.8-389.7-389.7-389.7z" fill="#543E3F" p-id="30822" data-spm-anchor-id="a313x.7781069.0.i26" class=""></path><path d="M134.2 722.9c-8.8 0-17.5-4-23.2-11.5-9.7-12.8-7.2-31 5.6-40.7L356.4 489c10.9-8.3 26.2-7.8 36.5 1.2l111.5 96.4 213.7-185.8c12.1-10.5 30.5-9.2 41 2.9s9.2 30.5-2.9 41L523.6 647c-10.9 9.5-27.1 9.5-38.1 0l-112.8-97.5-221 167.5c-5.2 4-11.4 5.9-17.5 5.9z" fill="#FFBB13" opacity=".5" p-id="30823" data-spm-anchor-id="a313x.7781069.0.i25" class=""></path><path d="M802.5 360.2l-192.8 25.3 151.8 164.8z" fill="#FFBB13" p-id="30824"></path></svg>