<?xml version="1.0" standalone="no"?><!DOCTYPE svg PUBLIC "-//W3C//DTD SVG 1.1//EN" "http://www.w3.org/Graphics/SVG/1.1/DTD/svg11.dtd"><svg t="1587971729812" class="icon" viewBox="0 0 1024 1024" version="1.1" xmlns="http://www.w3.org/2000/svg" p-id="5277" xmlns:xlink="http://www.w3.org/1999/xlink" width="200" height="200"><defs><style type="text/css"></style></defs><path d="M782.3 158.7c3.1 0 7 0.8 10.1 3.9 8.6 8.6 7 23.4 0 30.4-7 4.7-159.3 159.7-159.3 159.7s-13.2 17.1 0 30.4c4.7 4.7 9.3 6.2 14 6.2 9.3 0 16.3-6.2 16.3-6.2L835.2 225s4.7-3.9 10.9-3.9c3.9 0 7.8 1.6 12.4 5.5 11.7 11.7 1.6 23.4 1.6 23.4L703 423.6s-14.8 14.8 0 30.4c4.7 4.7 10.1 7 14.8 7 9.3 0 15.5-7 15.5-7l159.3-159.7s7.8-6.2 16.3-6.2c4.7 0 9.3 1.6 14 6.2 10.1 10.1 1.6 20.2 3.1 21.8 0 0-142.2 173.7-157.8 185.4-12.4 9.3-56.7 41.3-121.3 41.3-17.1 0-35.7-2.3-55.2-7.8-3.1 3.1-18.7 19.5-40.4 43.6L772 792.8c17.1 17.1 17.1 43.6 0 60.8-6.2 6.2-14 9.4-22.5 9.4-14 0-28.8-7-39.6-17.9 0 0-112.7-118.4-206-215-88.6 95-210.6 226.7-210.6 226.7-7 6.2-16.3 9.4-26.4 9.4-10.9 0-21.8-3.9-31.1-13.2-17.1-17.1-18.7-42.1-3.1-57.6L459 581.7c-20.2-21-38.1-38.9-51.3-53-10.9 3.9-30.3 10.1-56 10.1-56 0-138.3-31.9-209.8-195.5 0 0-45.1-87.2-45.9-151.9 0-25.7 7-33.5 14.8-33.5 12.4 0 29.5 17.9 29.5 17.9l49 47.5 7.8 7.8 310.1 302.2 45.9-42.8s-33.4-104.4 33.4-173.7c66.8-67 181.9-156.6 181.9-156.6s6.9-1.5 13.9-1.5z" fill="#F8441A" p-id="5278"></path></svg>